<svg width="16" height="16" fill="none" xmlns="http://www.w3.org/2000/svg"><path d="M8 .2019c2.1736 0 2.4448.0077 3.2976.0464.852.0387 1.432.1679 1.9424.3598.528.1965.9728.4627 1.4176.892a3.787 3.787 0 01.9224 1.371c.1976.493.332 1.0546.372 1.8786.0376.8248.048 1.0871.048 3.1893 0 2.1021-.008 2.3644-.048 3.1892-.04.824-.1744 1.3849-.372 1.8786a3.7694 3.7694 0 01-.9224 1.371c-.4.3933-.8838.6977-1.4176.8921-.5096.1911-1.0904.321-1.9424.3597-.8528.0364-1.124.0465-3.2976.0465s-2.4448-.0078-3.2976-.0465c-.852-.0387-1.432-.1686-1.9424-.3597a3.9294 3.9294 0 01-1.4176-.8921 3.7845 3.7845 0 01-.9224-1.371c-.1984-.4929-.332-1.0546-.372-1.8786C.0104 10.3034 0 10.0411 0 7.939c0-2.1022.008-2.3645.048-3.1893.04-.8247.1736-1.3849.372-1.8785a3.766 3.766 0 01.9224-1.371A3.9331 3.9331 0 012.76.608C3.2704.416 3.8496.287 4.7024.2483 5.5552.2119 5.8264.2019 8 .2019zm0 3.8685c-1.0609 0-2.0783.4076-2.8284 1.133C4.4214 5.929 4 6.913 4 7.939c0 1.026.4214 2.01 1.1716 2.7354.7501.7255 1.7675 1.1331 2.8284 1.1331 1.0609 0 2.0783-.4076 2.8284-1.1331C11.5786 9.9489 12 8.965 12 7.939c0-1.026-.4214-2.01-1.1716-2.7355C10.0783 4.478 9.0609 4.0705 8 4.0705zm5.2-.1934c0-.2565-.1054-.5025-.2929-.6839-.1875-.1813-.4419-.2832-.7071-.2832-.2652 0-.5196.1019-.7071.2832-.1875.1814-.2929.4274-.2929.6839 0 .2565.1054.5025.2929.6839.1875.1813.4419.2832.7071.2832.2652 0 .5196-.1019.7071-.2832.1875-.1814.2929-.4274.2929-.684zM8 5.6178c.6365 0 1.247.2446 1.697.6799.4501.4353.703 1.0257.703 1.6413 0 .6156-.2529 1.206-.703 1.6412-.45.4353-1.0605.6799-1.697.6799-.6365 0-1.247-.2446-1.697-.6799C5.8528 9.145 5.6 8.5546 5.6 7.939c0-.6156.2529-1.206.703-1.6413.45-.4353 1.0605-.6799 1.697-.6799z" fill="#1F1E25"/></svg>