<svg width="20" height="19" viewBox="0 0 20 19" fill="none" xmlns="http://www.w3.org/2000/svg">
<path d="M11.125 1H9.25L1 15.5122H3.4375L4.5625 13.439L11.125 1Z" fill="#2C36F2"/>
<path d="M2.125 18H17.875L11.125 5.14634L10 7.21951L13.375 13.439L14.5 15.5122H3.4375H1L2.125 18Z" fill="#2C36F2"/>
<path d="M14.5 15.5122L13.375 13.439H6.625H4.5625L3.4375 15.5122H14.5Z" fill="#2C36F2"/>
<path d="M17.875 18L19 15.5122L11.125 1L4.5625 13.439H6.625L10 7.21951L11.125 5.14634L17.875 18Z" fill="#2C36F2"/>
<path d="M10 7.21951L6.625 13.439H13.375L10 7.21951Z" fill="#2C36F2"/>
<path d="M17.875 18H2.125L1 15.5122M17.875 18L19 15.5122L11.125 1M17.875 18L11.125 5.14634L10 7.21951M11.125 1H9.25L1 15.5122M11.125 1L4.5625 13.439M1 15.5122H3.4375M10 7.21951L6.625 13.439M10 7.21951L13.375 13.439M6.625 13.439H13.375M6.625 13.439H4.5625M13.375 13.439L14.5 15.5122H3.4375M4.5625 13.439L3.4375 15.5122" stroke="#F6F7FF"/>
</svg>
