<svg width="26" height="24" viewBox="0 0 26 24" fill="none" xmlns="http://www.w3.org/2000/svg">
<path d="M14.5 1H12L1 19.7805H4.25L5.75 17.0976L14.5 1Z" fill="#2C36F2"/>
<path d="M2.5 23H23.5L14.5 6.36585L13 9.04878L17.5 17.0976L19 19.7805H4.25H1L2.5 23Z" fill="#2C36F2"/>
<path d="M19 19.7805L17.5 17.0976H8.5H5.75L4.25 19.7805H19Z" fill="#2C36F2"/>
<path d="M23.5 23L25 19.7805L14.5 1L5.75 17.0976H8.5L13 9.04878L14.5 6.36585L23.5 23Z" fill="#2C36F2"/>
<path d="M13 9.04878L8.5 17.0976H17.5L13 9.04878Z" fill="#2C36F2"/>
<path d="M23.5 23H2.5L1 19.7805M23.5 23L25 19.7805L14.5 1M23.5 23L14.5 6.36585L13 9.04878M14.5 1H12L1 19.7805M14.5 1L5.75 17.0976M1 19.7805H4.25M13 9.04878L8.5 17.0976M13 9.04878L17.5 17.0976M8.5 17.0976H17.5M8.5 17.0976H5.75M17.5 17.0976L19 19.7805H4.25M5.75 17.0976L4.25 19.7805" stroke="#F6F7FF"/>
</svg>
