<svg width="89" height="13" fill="none" xmlns="http://www.w3.org/2000/svg"><path d="M10.48 12H8.064V2.592h-2.8l-.208 1.6a56.818 56.818 0 01-.224 1.76 53.026 53.026 0 01-.24 1.68c-.085.523-.17.987-.256 1.392-.139.661-.325 1.227-.56 1.696-.224.47-.539.827-.944 1.072-.395.245-.912.368-1.552.368-.416 0-.8-.059-1.152-.176V10c.139.043.272.08.4.112.139.032.288.048.448.048.31 0 .544-.16.704-.48.17-.33.341-.944.512-1.84.064-.341.155-.875.272-1.6.117-.725.245-1.573.384-2.544.15-.981.288-2.021.416-3.12h7.216V12zM13.362.576h2.176v5.52c0 .267-.005.565-.016.896l-.032.976a78.3 78.3 0 01-.032.816 7.26 7.26 0 01-.032.464h.048l5.28-8.672h2.896V12h-2.16V6.512c0-.288.005-.603.016-.944.01-.352.021-.688.032-1.008.021-.32.037-.597.048-.832.021-.245.037-.405.048-.48h-.064L16.274 12h-2.912V.576zm20.388 0v2h-4.8V12h-2.416V.576h7.216zM41.37 12l-.832-2.72h-4.16L35.544 12h-2.608L36.97.528h2.96L43.977 12H41.37zm-1.408-4.752l-.833-2.656c-.053-.181-.122-.41-.207-.688a84.81 84.81 0 01-.256-.848 18.446 18.446 0 01-.208-.752c-.054.213-.128.48-.224.8-.086.31-.171.608-.257.896a8.192 8.192 0 01-.175.592l-.816 2.656h2.976zM50.002 12V.576h7.216v2h-4.8V4.96h.96c1.078 0 1.958.15 2.64.448.694.299 1.206.71 1.536 1.232.331.523.496 1.12.496 1.792 0 1.13-.378 2.01-1.136 2.64-.746.619-1.94.928-3.584.928h-3.328zm2.416-1.984h.816c.736 0 1.313-.117 1.728-.352.427-.235.64-.645.64-1.232 0-.608-.229-1.008-.688-1.2-.458-.192-1.082-.288-1.872-.288h-.623v3.072zm11.18-6.928c1.173 0 2.069.256 2.688.768.629.501.944 1.275.944 2.32V12h-1.664l-.464-1.184h-.064c-.374.47-.768.81-1.184 1.024-.416.213-.987.32-1.712.32-.779 0-1.424-.224-1.936-.672-.512-.459-.768-1.157-.768-2.096 0-.928.325-1.61.976-2.048.65-.448 1.626-.693 2.928-.736l1.52-.048v-.384c0-.459-.123-.795-.368-1.008-.235-.213-.566-.32-.992-.32a4.12 4.12 0 00-1.248.192c-.406.117-.811.267-1.216.448l-.784-1.616a6.87 6.87 0 011.552-.576 7.63 7.63 0 011.792-.208zm1.264 4.864l-.928.032c-.768.021-1.302.16-1.6.416-.299.256-.448.592-.448 1.008 0 .363.106.624.32.784.213.15.49.224.832.224.512 0 .944-.15 1.296-.448.352-.31.528-.741.528-1.296v-.72zm7.192-4.688v3.36h3.328v-3.36h2.384V12h-2.384V8.4h-3.328V12H69.67V3.264h2.384zm13.938 0h2.624L85.16 7.456 88.92 12h-2.704l-3.568-4.432V12h-2.384V3.264h2.384v4.24l3.344-4.24z" fill="#1F1E25"/></svg>