<svg width="10" height="16" fill="none" xmlns="http://www.w3.org/2000/svg"><path d="M8.8373.0986H1.1627C.5233.0986 0 .5686 0 1.1438v13.3834c0 .5751.5233 1.0456 1.1627 1.0456h7.6746c.6394 0 1.1627-.4696 1.1627-1.0452V1.1438C10 .5686 9.4767.0986 8.8373.0986zM3.7723.852h2.4553c.0777 0 .1407.0565.1407.1268 0 .0699-.063.1265-.1407.1265H3.7724c-.0777 0-.1407-.0566-.1407-.1265 0-.0703.063-.1268.1407-.1268zM5 15.0502c-.3212 0-.5813-.2339-.5813-.523 0-.2892.2601-.5226.5813-.5226.3212 0 .5813.2334.5813.5226 0 .2891-.2601.523-.5813.523zm4.191-1.4117H.809V1.7561h8.382v11.8824z" fill="#1F1E25"/></svg>