<svg width="16" height="17" fill="none" xmlns="http://www.w3.org/2000/svg"><path d="M15.9991 12.17v3.0397a.844.844 0 01-.2386.5864.9015.9015 0 01-.588.2715c-.3884.0258-.7057.0395-.9511.0395C6.3668 16.1071 0 9.9496 0 2.3531c0-.2373.0133-.5442.0409-.9198A.8486.8486 0 01.3216.8645.9056.9056 0 01.9279.6338h3.143a.453.453 0 01.2984.111.425.425 0 01.1442.2758c.0205.1978.0391.355.057.4746A11.6612 11.6612 0 005.644 4.9345c.0845.172.0294.3774-.1306.4874L3.5954 6.7475c1.1727 2.6429 3.3505 4.749 6.0832 5.8833l1.3688-1.8517a.4113.4113 0 01.2306-.1533.4237.4237 0 01.2787.0253 12.6685 12.6685 0 003.5554 1.0358c.1235.0172.2862.0361.4888.055a.4502.4502 0 01.2848.1398A.4221.4221 0 0116 12.17h-.0009z" fill="#1F1E25"/></svg>