<svg width="31" height="35" fill="none" xmlns="http://www.w3.org/2000/svg"><path d="M25.75 24.33L15.5 34 5.25 24.33a13.45 13.45 0 01-3.97-7c-.56-2.65-.27-5.4.82-7.9C3.2 6.95 5.06 4.82 7.44 3.3 9.83 1.8 12.64 1 15.5 1c2.87 0 5.67.8 8.06 2.3a13.88 13.88 0 015.34 6.14c1.1 2.5 1.38 5.24.82 7.9a13.45 13.45 0 01-3.97 7z" fill="#2C36F2"/><path d="M16.34 8.62h-1.4l-6.19 10.1h1.83l.84-1.44 4.92-8.66z" fill="#2C36F2"/><path d="M9.6 20.46h11.8l-5.06-8.96-.84 1.45 2.53 4.33.84 1.45H8.75l.85 1.73z" fill="#2C36F2"/><path d="M18.87 18.73l-.84-1.45H11.42l-.84 1.45h8.3z" fill="#2C36F2"/><path d="M21.4 20.46l.85-1.73-5.9-10.11-4.93 8.66h1.55l2.53-4.33.84-1.45 5.06 8.96z" fill="#2C36F2"/><path d="M15.5 12.95l-2.53 4.33h5.06l-2.53-4.33z" fill="#2C36F2"/><path d="M21.4 20.46H9.6l-.85-1.73m12.65 1.73l.85-1.73-5.9-10.11m5.05 11.84l-5.06-8.96-.84 1.45m.84-4.33h-1.4l-6.19 10.1m7.6-10.1l-4.93 8.66m-2.67 1.45h1.83m4.92-5.78l-2.53 4.33m2.53-4.33l2.53 4.33m-5.06 0h5.06m-5.06 0h-1.55m6.61 0l.84 1.45h-8.29m.84-1.45l-.84 1.45m15.17 5.6L15.5 34 5.25 24.33a13.45 13.45 0 01-3.97-7c-.56-2.65-.27-5.4.82-7.9C3.2 6.95 5.06 4.82 7.44 3.3 9.83 1.8 12.64 1 15.5 1c2.87 0 5.67.8 8.06 2.3a13.88 13.88 0 015.34 6.14c1.1 2.5 1.38 5.24.82 7.9a13.45 13.45 0 01-3.97 7z" stroke="#F6F7FF" stroke-width=".5"/></svg>