<svg width="16" height="13" fill="none" xmlns="http://www.w3.org/2000/svg"><path d="M15.9992 1.6287a6.7595 6.7595 0 01-1.8854.4991c.6858-.3964 1.1992-1.0203 1.4443-1.7554-.6437.3702-1.3493.6297-2.0848.77-.494-.5109-1.1488-.8497-1.8627-.9637-.7138-.1141-1.4466.003-2.0845.3329-.6379.33-1.1451.8543-1.4428 1.4917a3.0748 3.0748 0 00-.2034 2.0324c-1.3053-.0632-2.5822-.391-3.7478-.9621-1.1657-.5712-2.194-1.3728-3.0183-2.353A3.081 3.081 0 00.6695 2.316c0 1.1.5793 2.0717 1.46 2.6407A3.3588 3.3588 0 01.643 4.5599v.0395c.0001.7326.2624 1.4426.7424 2.0096.48.567 1.148.9562 1.891 1.1014a3.4158 3.4158 0 01-1.4835.0547c.2095.6305.6177 1.182 1.1676 1.5772.55.3952 1.214.6142 1.8991.6265-.681.5169-1.4606.899-2.2944 1.1244A6.8067 6.8067 0 010 11.2827c1.5006.9327 3.2473 1.4278 5.0314 1.4262 6.0385 0 9.3407-4.8346 9.3407-9.0274a8.977 8.977 0 00-.0102-.4097A6.5507 6.5507 0 0016 1.6294l-.0008-.0007z" fill="#1F1E25"/></svg>