<svg width="16" height="13" fill="none" xmlns="http://www.w3.org/2000/svg"><path d="M15.6344 2.099C16 3.4995 16 6.4226 16 6.4226s0 2.9232-.3656 4.3235c-.2032.774-.7976 1.383-1.5504 1.5889-1.3672.374-6.084.374-6.084.374s-4.7144 0-6.084-.374c-.756-.209-1.3496-.8173-1.5504-1.5889C0 9.3457 0 6.4225 0 6.4225s0-2.9231.3656-4.3234C.5688 1.325 1.1632.716 1.916.51 3.2856.1362 8 .1362 8 .1362s4.7168 0 6.084.374c.756.2091 1.3496.8173 1.5504 1.589zM6.4 9.1729l4.8-2.7503-4.8-2.7503v5.5006z" fill="#1F1E25"/></svg>